<svg width="30" height="31" viewBox="0 0 30 31" fill="none" xmlns="http://www.w3.org/2000/svg">
<path d="M25.6055 0.373535L4.39453 0.373535C1.97159 0.373535 0 2.33631 0 4.74842L0 25.8645C0 28.2767 1.97159 30.2394 4.39453 30.2394L13.2422 30.2394L13.2422 19.6814L9.72656 19.6814L9.72656 14.4315H13.2422V10.8733C13.2422 7.97832 15.6077 5.6234 18.5156 5.6234L23.8477 5.6234V10.8733H18.5156L18.5156 14.4315H23.8477L22.9687 19.6814H18.5156V30.2394H25.6055C28.0284 30.2394 30 28.2767 30 25.8645L30 4.74842C30 2.33631 28.0284 0.373535 25.6055 0.373535Z" fill="black"/>
</svg>
