<svg width="30" height="31" viewBox="0 0 30 31" fill="none" xmlns="http://www.w3.org/2000/svg">
<path d="M-9.01547e-07 9.70694L-4.09794e-07 20.9067C-1.83506e-07 26.0604 4.19812 30.2397 9.375 30.2397L20.625 30.2397C25.8019 30.2397 30 26.0604 30 20.9067L30 9.70694C30 4.55321 25.8019 0.373851 20.625 0.373851L9.375 0.373851C4.19812 0.373852 -1.12784e-06 4.55321 -9.01547e-07 9.70694ZM20.625 3.17378C24.2437 3.17378 27.1875 6.10437 27.1875 9.70694L27.1875 20.9067C27.1875 24.5092 24.2437 27.4398 20.625 27.4398L9.375 27.4398C5.75625 27.4398 2.8125 24.5092 2.8125 20.9067L2.8125 9.70694C2.8125 6.10437 5.75625 3.17378 9.375 3.17378L20.625 3.17378Z" fill="black"/>
<path d="M7.5 15.3065C7.5 19.4298 10.8581 22.7729 15 22.7729C19.1419 22.7729 22.5 19.4298 22.5 15.3065C22.5 11.1831 19.1419 7.84 15 7.84C10.8581 7.84 7.5 11.1831 7.5 15.3065ZM19.6875 15.3065C19.6875 17.8787 17.5837 19.973 15 19.973C12.4144 19.973 10.3125 17.8787 10.3125 15.3065C10.3125 12.7343 12.4144 10.6399 15 10.6399C17.5837 10.6399 19.6875 12.7343 19.6875 15.3065Z" fill="black"/>
<path d="M7.93685 7.27999C7.93685 6.73052 7.48942 6.28509 6.93748 6.28509C6.38554 6.28509 5.93811 6.73052 5.93811 7.28C5.93811 7.82947 6.38554 8.2749 6.93748 8.2749C7.48942 8.2749 7.93685 7.82947 7.93685 7.27999Z" fill="black"/>
</svg>
