<svg width="30" height="31" viewBox="0 0 30 31" fill="none" xmlns="http://www.w3.org/2000/svg">
<path d="M15 30.2394C23.2863 30.2394 30 23.5557 30 15.3065C30 7.05727 23.2863 0.373535 15 0.373535C6.71375 0.373535 0 7.05727 0 15.3065C0 23.5557 6.71375 30.2394 15 30.2394ZM6.86375 14.9829L21.3263 9.43161C21.9975 9.1902 22.5837 9.59463 22.3662 10.6051L22.3675 10.6038L19.905 22.1532C19.7225 22.9721 19.2337 23.1712 18.55 22.7854L14.8 20.034L12.9912 21.7687C12.7912 21.9678 12.6225 22.1358 12.235 22.1358L12.5013 18.3366L19.4513 12.0859C19.7537 11.8209 19.3837 11.6716 18.985 11.9354L10.3963 17.3187L6.69375 16.1689C5.89 15.915 5.8725 15.3687 6.86375 14.9829Z" fill="black"/>
</svg>
